<svg width="22" height="22" viewBox="0 0 22 22" fill="none" xmlns="http://www.w3.org/2000/svg">
<g id="ph:note-light">
<path id="Vector" d="M7.73437 8.25C7.73437 8.11325 7.7887 7.9821 7.8854 7.8854C7.9821 7.7887 8.11325 7.73437 8.25 7.73437H13.75C13.8868 7.73437 14.0179 7.7887 14.1146 7.8854C14.2113 7.9821 14.2656 8.11325 14.2656 8.25C14.2656 8.38675 14.2113 8.5179 14.1146 8.6146C14.0179 8.7113 13.8868 8.76562 13.75 8.76562H8.25C8.11325 8.76562 7.9821 8.7113 7.8854 8.6146C7.7887 8.5179 7.73437 8.38675 7.73437 8.25ZM8.25 11.5156H13.75C13.8868 11.5156 14.0179 11.4613 14.1146 11.3646C14.2113 11.2679 14.2656 11.1368 14.2656 11C14.2656 10.8632 14.2113 10.7321 14.1146 10.6354C14.0179 10.5387 13.8868 10.4844 13.75 10.4844H8.25C8.11325 10.4844 7.9821 10.5387 7.8854 10.6354C7.7887 10.7321 7.73437 10.8632 7.73437 11C7.73437 11.1368 7.7887 11.2679 7.8854 11.3646C7.9821 11.4613 8.11325 11.5156 8.25 11.5156ZM11 13.2344H8.25C8.11325 13.2344 7.9821 13.2887 7.8854 13.3854C7.7887 13.4821 7.73437 13.6132 7.73437 13.75C7.73437 13.8868 7.7887 14.0179 7.8854 14.1146C7.9821 14.2113 8.11325 14.2656 8.25 14.2656H11C11.1368 14.2656 11.2679 14.2113 11.3646 14.1146C11.4613 14.0179 11.5156 13.8868 11.5156 13.75C11.5156 13.6132 11.4613 13.4821 11.3646 13.3854C11.2679 13.2887 11.1368 13.2344 11 13.2344ZM19.0781 4.125V13.4655C19.0784 13.6236 19.0474 13.7801 18.987 13.9261C18.9265 14.0722 18.8377 14.2048 18.7258 14.3163L14.3163 18.7258C14.2048 18.8377 14.0722 18.9265 13.9261 18.987C13.7801 19.0474 13.6236 19.0784 13.4655 19.0781H4.125C3.80591 19.0781 3.49989 18.9514 3.27426 18.7257C3.04863 18.5001 2.92188 18.1941 2.92188 17.875V4.125C2.92188 3.80591 3.04863 3.49989 3.27426 3.27426C3.49989 3.04863 3.80591 2.92188 4.125 2.92188H17.875C18.1941 2.92188 18.5001 3.04863 18.7257 3.27426C18.9514 3.49989 19.0781 3.80591 19.0781 4.125ZM4.125 18.0469H13.2344V13.75C13.2344 13.6132 13.2887 13.4821 13.3854 13.3854C13.4821 13.2887 13.6132 13.2344 13.75 13.2344H18.0469V4.125C18.0469 4.07942 18.0288 4.0357 17.9965 4.00347C17.9643 3.97123 17.9206 3.95312 17.875 3.95312H4.125C4.07942 3.95312 4.0357 3.97123 4.00347 4.00347C3.97123 4.0357 3.95312 4.07942 3.95312 4.125V17.875C3.95312 17.9206 3.97123 17.9643 4.00347 17.9965C4.0357 18.0288 4.07942 18.0469 4.125 18.0469ZM17.3181 14.2656H14.2656V17.3181L17.3181 14.2656Z" fill="white"/>
</g>
</svg>
