<svg width="16" height="16" viewBox="0 0 16 16" fill="none" xmlns="http://www.w3.org/2000/svg">
<g id="pepicons-pencil:bulletin-notice" clip-path="url(#clip0_1_1150)">
<g id="Group">
<path id="Vector" fill-rule="evenodd" clip-rule="evenodd" d="M14.4 5.5384H1.60005V14.3384H14.4V5.5384ZM1.60005 4.7384C1.38788 4.7384 1.18439 4.82269 1.03436 4.97272C0.884334 5.12275 0.800049 5.32623 0.800049 5.5384V14.3384C0.800049 14.5506 0.884334 14.7541 1.03436 14.9041C1.18439 15.0541 1.38788 15.1384 1.60005 15.1384H14.4C14.6122 15.1384 14.8157 15.0541 14.9657 14.9041C15.1158 14.7541 15.2 14.5506 15.2 14.3384V5.5384C15.2 5.32623 15.1158 5.12275 14.9657 4.97272C14.8157 4.82269 14.6122 4.7384 14.4 4.7384H1.60005Z" fill="white"/>
<path id="Vector_2" fill-rule="evenodd" clip-rule="evenodd" d="M4.80007 7.53841C4.80007 7.43232 4.84221 7.33058 4.91722 7.25556C4.99224 7.18055 5.09398 7.13841 5.20007 7.13841H10.8001C10.9062 7.13841 11.0079 7.18055 11.0829 7.25556C11.1579 7.33058 11.2001 7.43232 11.2001 7.53841C11.2001 7.64449 11.1579 7.74623 11.0829 7.82125C11.0079 7.89626 10.9062 7.93841 10.8001 7.93841H5.20007C5.09398 7.93841 4.99224 7.89626 4.91722 7.82125C4.84221 7.74623 4.80007 7.64449 4.80007 7.53841ZM4.00007 9.93841C4.00007 9.83232 4.04221 9.73058 4.11722 9.65556C4.19224 9.58055 4.29398 9.53841 4.40007 9.53841H11.6001C11.7062 9.53841 11.8079 9.58055 11.8829 9.65556C11.9579 9.73058 12.0001 9.83232 12.0001 9.93841C12.0001 10.0445 11.9579 10.1462 11.8829 10.2212C11.8079 10.2963 11.7062 10.3384 11.6001 10.3384H4.40007C4.29398 10.3384 4.19224 10.2963 4.11722 10.2212C4.04221 10.1462 4.00007 10.0445 4.00007 9.93841ZM4.80007 12.3384C4.80007 12.2323 4.84221 12.1306 4.91722 12.0556C4.99224 11.9805 5.09398 11.9384 5.20007 11.9384H10.8001C10.9062 11.9384 11.0079 11.9805 11.0829 12.0556C11.1579 12.1306 11.2001 12.2323 11.2001 12.3384C11.2001 12.4445 11.1579 12.5462 11.0829 12.6212C11.0079 12.6963 10.9062 12.7384 10.8001 12.7384H5.20007C5.09398 12.7384 4.99224 12.6963 4.91722 12.6212C4.84221 12.5462 4.80007 12.4445 4.80007 12.3384ZM9.41447 1.91841C9.22874 1.73263 9.00824 1.58527 8.76555 1.48473C8.52287 1.38418 8.26275 1.33243 8.00007 1.33243C7.73738 1.33243 7.47726 1.38418 7.23458 1.48473C6.99189 1.58527 6.77139 1.73263 6.58567 1.91841L3.48327 5.02161C3.40816 5.09672 3.30629 5.13891 3.20007 5.13891C3.09385 5.13891 2.99198 5.09672 2.91687 5.02161C2.84176 4.9465 2.79956 4.84463 2.79956 4.73841C2.79956 4.68581 2.80992 4.63373 2.83005 4.58514C2.85017 4.53655 2.87968 4.4924 2.91687 4.45521L6.02087 1.35281C6.54594 0.827888 7.25801 0.533005 8.00047 0.533005C8.74293 0.533005 9.45499 0.827888 9.98007 1.35281L13.0833 4.45601C13.1204 4.4932 13.1499 4.53734 13.1699 4.58591C13.19 4.63448 13.2003 4.68653 13.2003 4.73909C13.2003 4.79165 13.1899 4.84368 13.1697 4.89223C13.1496 4.94077 13.1201 4.98487 13.0829 5.02201C13.0457 5.05914 13.0015 5.08859 12.953 5.10867C12.9044 5.12875 12.8523 5.13907 12.7998 5.13903C12.7472 5.13899 12.6952 5.1286 12.6466 5.10846C12.5981 5.08831 12.554 5.0588 12.5169 5.02161L9.41447 1.91841Z" fill="white"/>
</g>
</g>
<defs>
<clipPath id="clip0_1_1150">
<rect width="16" height="16" fill="white"/>
</clipPath>
</defs>
</svg>
