<svg width="20" height="20" viewBox="0 0 20 20" fill="none" xmlns="http://www.w3.org/2000/svg">
<g id="face_retouching_natural" clip-path="url(#clip0_191_73)">
<path id="Vector" d="M7.49992 11.875C8.07522 11.875 8.54159 11.4086 8.54159 10.8333C8.54159 10.258 8.07522 9.79167 7.49992 9.79167C6.92462 9.79167 6.45825 10.258 6.45825 10.8333C6.45825 11.4086 6.92462 11.875 7.49992 11.875Z" fill="white"/>
<path id="Vector_2" d="M17.3084 7.15L16.5417 8.82501C16.6167 9.20834 16.6667 9.6 16.6667 10C16.6667 13.675 13.6751 16.6667 10.0001 16.6667C6.32508 16.6667 3.33341 13.675 3.33341 10C3.33341 9.95834 3.34175 9.91667 3.33341 9.88334C5.50008 9.06667 7.24175 7.39167 8.11675 5.25834C9.65008 7.13334 11.9751 8.33334 14.5834 8.33334C14.9584 8.33334 15.3251 8.3 15.6917 8.25L15.1917 7.15L14.4584 5.54167L12.8501 4.80834L10.5251 3.75001L12.8501 2.69167L13.4417 2.42501C12.3917 1.94167 11.2251 1.66667 10.0001 1.66667C5.40008 1.66667 1.66675 5.40001 1.66675 10C1.66675 14.6 5.40008 18.3333 10.0001 18.3333C14.6001 18.3333 18.3334 14.6 18.3334 10C18.3334 8.775 18.0584 7.60834 17.5834 6.55834L17.3084 7.15Z" fill="white"/>
<path id="Vector_3" d="M12.4999 11.875C13.0752 11.875 13.5416 11.4086 13.5416 10.8333C13.5416 10.258 13.0752 9.79167 12.4999 9.79167C11.9246 9.79167 11.4583 10.258 11.4583 10.8333C11.4583 11.4086 11.9246 11.875 12.4999 11.875Z" fill="white"/>
<path id="Vector_4" d="M17.1666 4.66666L16.2499 6.66666L15.3333 4.66666L13.3333 3.74999L15.3333 2.83333L16.2499 0.833328L17.1666 2.83333L19.1666 3.74999L17.1666 4.66666Z" fill="#FFF85A"/>
</g>
<defs>
<clipPath id="clip0_191_73">
<rect width="20" height="20" fill="white"/>
</clipPath>
</defs>
</svg>
