<svg width="24" height="24" viewBox="0 0 24 24" fill="none" xmlns="http://www.w3.org/2000/svg">
<path d="M7.88502 10.23L12 3.463L16.115 10.232H7.88502V10.23ZM17.5 21.23C16.4554 21.23 15.572 20.87 14.85 20.15C14.13 19.428 13.77 18.5447 13.77 17.5C13.77 16.4553 14.13 15.5723 14.85 14.851C15.572 14.1297 16.4554 13.769 17.5 13.769C18.5447 13.769 19.428 14.1297 20.15 14.851C20.87 15.5723 21.23 16.4553 21.23 17.5C21.23 18.5447 20.8697 19.428 20.149 20.15C19.4277 20.87 18.5447 21.23 17.5 21.23ZM3.77002 20.73V14.27H10.23V20.73H3.77002ZM17.5 20.23C18.264 20.23 18.91 19.9663 19.438 19.439C19.9667 18.911 20.231 18.265 20.231 17.501C20.231 16.7363 19.967 16.0897 19.439 15.561C18.911 15.033 18.265 14.769 17.501 14.769C16.7364 14.769 16.0897 15.033 15.561 15.561C15.033 16.089 14.769 16.735 14.769 17.499C14.769 18.2637 15.033 18.9103 15.561 19.439C16.089 19.967 16.735 20.231 17.499 20.231L17.5 20.23ZM4.77002 19.73H9.23002V15.27H4.77002V19.73ZM9.62702 9.23H14.373L12 5.428L9.62702 9.23Z" fill="#519C6D"/>
</svg>
