<svg width="22" height="19" viewBox="0 0 22 19" fill="none" xmlns="http://www.w3.org/2000/svg">
<path fill-rule="evenodd" clip-rule="evenodd" d="M10.3615 0.0525C10.6045 -0.0175 10.8615 -0.0175 11.1045 0.0525C11.6225 0.1995 12.1445 0.3355 12.6685 0.4725C15.1295 1.1135 17.6285 1.7655 19.8525 3.5765L20.8765 4.4105C21.2915 4.7485 21.4995 5.2505 21.4995 5.7505V12.7505C21.4995 12.9494 21.4205 13.1402 21.2798 13.2808C21.1392 13.4215 20.9484 13.5005 20.7495 13.5005C20.5506 13.5005 20.3598 13.4215 20.2192 13.2808C20.0785 13.1402 19.9995 12.9494 19.9995 12.7505V7.8075L19.8365 7.9405C19.1001 8.53824 18.2951 9.04615 17.4385 9.4535C17.4785 9.5445 17.4995 9.6445 17.4995 9.7505V14.0445C17.4995 14.5982 17.3323 15.139 17.0199 15.5961C16.7075 16.0532 16.2644 16.4054 15.7485 16.6065L11.7485 18.1665C11.1061 18.417 10.3929 18.417 9.7505 18.1665L5.7505 16.6065C5.23465 16.4054 4.79152 16.0532 4.4791 15.5961C4.16668 15.139 3.99953 14.5982 3.9995 14.0445V9.7505C3.9995 9.6425 4.0225 9.5395 4.0635 9.4465C3.2335 9.0475 2.4235 8.5565 1.6465 7.9245L0.6225 7.0905C-0.2075 6.4135 -0.2075 5.0875 0.6225 4.4105L1.6625 3.5605C3.8695 1.7605 6.3515 1.1115 8.7945 0.4735C9.31835 0.338869 9.84071 0.198527 10.3615 0.0525ZM19.9995 5.7515C19.9995 5.6615 19.9635 5.6015 19.9295 5.5735L18.9055 4.7395C16.7495 3.2505 14.8275 2.5935 12.3895 1.9525C11.8361 1.80907 11.2841 1.6604 10.7335 1.5065C10.1635 1.6675 9.6095 1.8135 9.0715 1.9555C6.6515 2.5915 4.5425 3.1465 2.6115 4.7235L1.5705 5.5725C1.5355 5.6005 1.4995 5.6595 1.4995 5.7495C1.4995 5.8395 1.5355 5.8995 1.5695 5.9275L2.5945 6.7615C4.5425 8.3485 6.6705 8.9075 9.1095 9.5485C9.6465 9.6885 10.1975 9.8345 10.7655 9.9945C11.3355 9.8335 11.8895 9.6875 12.4275 9.5455C14.8475 8.9095 16.9565 8.3545 18.8875 6.7785L19.9285 5.9285C19.9635 5.9005 19.9995 5.8415 19.9995 5.7515ZM12.7055 11.0275C13.8055 10.7405 14.9125 10.4505 15.9995 10.0555V14.0445C15.9995 14.5595 15.6835 15.0215 15.2035 15.2095L11.2035 16.7685C10.9115 16.8823 10.5875 16.8823 10.2955 16.7685L6.2955 15.2085C6.06109 15.1171 5.85971 14.9571 5.71769 14.7495C5.57567 14.5418 5.49963 14.2961 5.4995 14.0445V10.0465C6.5985 10.4465 7.7185 10.7385 8.8295 11.0285C9.3545 11.1655 9.8765 11.3015 10.3945 11.4485C10.6375 11.5185 10.8945 11.5185 11.1375 11.4485C11.6565 11.3005 12.1795 11.1645 12.7055 11.0275Z" fill="#519C6D"/>
</svg>
