<svg width="12" height="12" viewBox="0 0 12 12" fill="none" xmlns="http://www.w3.org/2000/svg">
<path d="M10.1152 5.53922C10.101 5.47911 10.0721 5.42345 10.0313 5.37716C9.99037 5.33088 9.93869 5.29541 9.8808 5.2739L7.18033 4.26094L7.86752 0.823592C7.88308 0.743727 7.87224 0.660968 7.83664 0.587802C7.80104 0.514637 7.7426 0.455036 7.67016 0.417993C7.59771 0.38095 7.51518 0.368475 7.43503 0.38245C7.35487 0.396426 7.28143 0.436093 7.2258 0.495467L1.9758 6.12047C1.93316 6.1654 1.90231 6.22019 1.88601 6.27995C1.86972 6.33971 1.86848 6.40258 1.88241 6.46293C1.89633 6.52329 1.925 6.57925 1.96583 6.62583C2.00667 6.67241 2.05841 6.70814 2.11642 6.72984L4.81783 7.74281L4.13252 11.1764C4.11696 11.2563 4.12779 11.339 4.16339 11.4122C4.19899 11.4854 4.25743 11.545 4.32987 11.582C4.40232 11.619 4.48485 11.6315 4.565 11.6175C4.64516 11.6036 4.7186 11.5639 4.77423 11.5045L10.0242 5.87953C10.0661 5.83459 10.0963 5.78005 10.1121 5.72072C10.128 5.66138 10.129 5.59905 10.1152 5.53922ZM5.12673 10.0312L5.61752 7.57594C5.63508 7.48886 5.62116 7.39837 5.57824 7.32059C5.53532 7.24282 5.46618 7.18281 5.38314 7.15125L2.90627 6.22078L6.87283 1.97109L6.38252 4.4264C6.36495 4.51348 6.37887 4.60397 6.42179 4.68175C6.46471 4.75952 6.53385 4.81953 6.61689 4.85109L9.09189 5.77922L5.12673 10.0312Z" fill="white"/>
</svg>
