<svg width="28" height="17" viewBox="0 0 28 17" fill="none" xmlns="http://www.w3.org/2000/svg">
<path d="M1 9.66667C6.2 -1.88889 21.8 -1.88889 27 9.66667" stroke="#519C6D" stroke-width="1.5" stroke-linecap="round" stroke-linejoin="round"/>
<path d="M14.0001 15.4444C13.431 15.4444 12.8675 15.3324 12.3418 15.1146C11.816 14.8968 11.3383 14.5776 10.936 14.1752C10.5336 13.7729 10.2144 13.2952 9.9966 12.7694C9.77883 12.2437 9.66675 11.6802 9.66675 11.1111C9.66675 10.5421 9.77883 9.97856 9.9966 9.45282C10.2144 8.92707 10.5336 8.44937 10.936 8.04698C11.3383 7.64459 11.816 7.3254 12.3418 7.10763C12.8675 6.88986 13.431 6.77778 14.0001 6.77778C15.1494 6.77778 16.2516 7.23432 17.0642 8.04698C17.8769 8.85964 18.3334 9.96184 18.3334 11.1111C18.3334 12.2604 17.8769 13.3626 17.0642 14.1752C16.2516 14.9879 15.1494 15.4444 14.0001 15.4444Z" stroke="#519C6D" stroke-width="1.5" stroke-linecap="round" stroke-linejoin="round"/>
</svg>
