<svg width="21" height="21" viewBox="0 0 21 21" fill="none" xmlns="http://www.w3.org/2000/svg">
<path id="Vector" fill-rule="evenodd" clip-rule="evenodd" d="M17.941 3.05217C16.9721 2.08166 15.8193 1.31217 14.5496 0.788257C13.2798 0.264347 11.9183 -0.00356526 10.5437 3.58254e-05C4.78187 3.58254e-05 0.0874999 4.66882 0.0874999 10.4046C0.083133 12.231 0.564337 14.026 1.48225 15.6074L0 21L5.544 19.5506C7.07699 20.3819 8.79456 20.8182 10.5402 20.8197H10.5446C16.3074 20.8197 20.9965 16.1518 21 10.4116C21 7.63211 19.9132 5.01898 17.941 3.0513V3.05217ZM10.5437 19.0611H10.5402C8.98411 19.061 7.45653 18.645 6.11713 17.8564L5.7995 17.6691L2.50775 18.5271L3.38625 15.3347L3.1815 15.0081C2.31052 13.6294 1.84941 12.0333 1.8515 10.4046C1.8515 5.63829 5.75138 1.75954 10.5473 1.75954C11.6886 1.7567 12.8192 1.97927 13.8736 2.41436C14.9279 2.84945 15.8851 3.48842 16.6897 4.29428C17.4983 5.09627 18.1393 6.04979 18.5755 7.09976C19.0118 8.14974 19.2348 9.27536 19.2316 10.4116C19.2316 15.1823 15.3326 19.0611 10.5437 19.0611ZM15.3081 12.5822C15.0483 12.4533 13.7629 11.8244 13.524 11.7391C13.2851 11.6502 13.1101 11.6093 12.936 11.868C12.761 12.1293 12.2623 12.7155 12.1091 12.8889C11.9586 13.0587 11.8046 13.0831 11.5448 12.9533C11.2823 12.8244 10.4414 12.5483 9.443 11.6607C8.66687 10.9726 8.141 10.1189 7.9905 9.86024C7.8365 9.59892 7.973 9.45956 8.10337 9.3289C8.22237 9.21392 8.36588 9.02665 8.49625 8.87335C8.62575 8.7244 8.67125 8.61552 8.75875 8.44131C8.8445 8.26797 8.80075 8.11467 8.73512 7.98575C8.67037 7.85684 8.148 6.57379 7.92925 6.05291C7.71663 5.54596 7.50138 5.61739 7.34125 5.60781C7.19075 5.60084 7.01662 5.60084 6.8425 5.60084C6.6675 5.60084 6.384 5.6653 6.14425 5.92748C5.90538 6.18618 5.23163 6.81594 5.23163 8.09463C5.23163 9.3742 6.16788 10.6119 6.29913 10.7862C6.42863 10.956 8.141 13.5822 10.7616 14.7093C11.2472 14.9184 11.7438 15.1013 12.2491 15.2572C12.8748 15.4541 13.4452 15.4271 13.8967 15.3617C14.399 15.2877 15.4411 14.7328 15.6599 14.124C15.876 13.5186 15.876 12.9977 15.8104 12.8889C15.7456 12.78 15.5715 12.7146 15.3081 12.5822Z" fill="white"/>
</svg>
