<svg width="29" height="29" viewBox="0 0 29 29" fill="none" xmlns="http://www.w3.org/2000/svg">
<path d="M9.66663 7.25C9.66663 5.96812 10.1759 4.73874 11.0823 3.83231C11.9887 2.92589 13.2181 2.41666 14.5 2.41666C15.7818 2.41666 17.0112 2.92589 17.9176 3.83231C18.8241 4.73874 19.3333 5.96812 19.3333 7.25V14.5C19.3333 15.7819 18.8241 17.0113 17.9176 17.9177C17.0112 18.8241 15.7818 19.3333 14.5 19.3333C13.2181 19.3333 11.9887 18.8241 11.0823 17.9177C10.1759 17.0113 9.66663 15.7819 9.66663 14.5V7.25ZM14.5 3.92708C13.6187 3.92708 12.7735 4.27717 12.1503 4.90034C11.5271 5.52351 11.177 6.36871 11.177 7.25V14.5C11.177 15.3813 11.5271 16.2265 12.1503 16.8497C12.7735 17.4728 13.6187 17.8229 14.5 17.8229C15.3813 17.8229 16.2264 17.4728 16.8496 16.8497C17.4728 16.2265 17.8229 15.3813 17.8229 14.5V7.25C17.8229 6.36871 17.4728 5.52351 16.8496 4.90034C16.2264 4.27717 15.3813 3.92708 14.5 3.92708ZM15.1041 22.7861C19.4934 22.4762 22.9583 18.8168 22.9583 14.349C22.9583 14.1487 22.8787 13.9566 22.7371 13.8149C22.5955 13.6733 22.4034 13.5937 22.2031 13.5937C22.0028 13.5937 21.8107 13.6733 21.6691 13.8149C21.5274 13.9566 21.4479 14.1487 21.4479 14.349C21.4479 18.186 18.337 21.2969 14.5 21.2969C10.6629 21.2969 7.55204 18.186 7.55204 14.349C7.55204 14.1487 7.47248 13.9566 7.33085 13.8149C7.18922 13.6733 6.99713 13.5937 6.79683 13.5937C6.59654 13.5937 6.40445 13.6733 6.26282 13.8149C6.12119 13.9566 6.04163 14.1487 6.04163 14.349C6.04163 18.7141 9.34823 22.307 13.5937 22.759V25.8281C13.5937 26.0284 13.6733 26.2205 13.8149 26.3621C13.9565 26.5038 14.1486 26.5833 14.3489 26.5833C14.5492 26.5833 14.7413 26.5038 14.8829 26.3621C15.0246 26.2205 15.1041 26.0284 15.1041 25.8281V22.7861Z" fill="black"/>
</svg>
