<svg width="30" height="30" viewBox="0 0 30 30" fill="none" xmlns="http://www.w3.org/2000/svg">
<path d="M21.1906 26H5.80938C4.50125 26 3.4375 24.9363 3.4375 23.6281V12.5594C3.4375 11.2513 4.50125 10.1875 5.80938 10.1875H21.1906C22.4988 10.1875 23.5625 11.2513 23.5625 12.5594V23.6138C23.5625 24.9219 22.4988 25.9856 21.1906 25.9856V26ZM5.80938 11.625C5.29188 11.625 4.875 12.0419 4.875 12.5594V23.6138C4.875 24.1313 5.29188 24.5481 5.80938 24.5481H21.1906C21.7081 24.5481 22.125 24.1313 22.125 23.6138V12.5594C22.125 12.0419 21.7081 11.625 21.1906 11.625H5.80938Z" fill="#519C6D"/>
<path d="M20.0261 11.625H6.97363V9.52625C6.97363 5.9325 9.90613 3 13.4999 3C17.0936 3 20.0261 5.9325 20.0261 9.52625V11.625ZM8.41113 10.1875H18.5886V9.52625C18.5886 6.72312 16.303 4.4375 13.4999 4.4375C10.6968 4.4375 8.41113 6.72312 8.41113 9.52625V10.1875Z" fill="#519C6D"/>
<path d="M19.25 19.5312C20.0439 19.5312 20.6875 18.8877 20.6875 18.0938C20.6875 17.2998 20.0439 16.6562 19.25 16.6562C18.4561 16.6562 17.8125 17.2998 17.8125 18.0938C17.8125 18.8877 18.4561 19.5312 19.25 19.5312Z" fill="#519C6D"/>
<path d="M13.5 19.5312C14.2939 19.5312 14.9375 18.8877 14.9375 18.0938C14.9375 17.2998 14.2939 16.6562 13.5 16.6562C12.7061 16.6562 12.0625 17.2998 12.0625 18.0938C12.0625 18.8877 12.7061 19.5312 13.5 19.5312Z" fill="#519C6D"/>
<path d="M7.75 19.5312C8.54391 19.5312 9.1875 18.8877 9.1875 18.0938C9.1875 17.2998 8.54391 16.6562 7.75 16.6562C6.95609 16.6562 6.3125 17.2998 6.3125 18.0938C6.3125 18.8877 6.95609 19.5312 7.75 19.5312Z" fill="#519C6D"/>
</svg>
