<svg width="13" height="18" viewBox="0 0 13 18" fill="none" xmlns="http://www.w3.org/2000/svg">
<path d="M8.75 0C8.94891 0 9.13968 0.0790175 9.28033 0.21967C9.42098 0.360322 9.5 0.551088 9.5 0.75C9.5 0.948912 9.42098 1.13968 9.28033 1.28033C9.13968 1.42098 8.94891 1.5 8.75 1.5C6.82718 1.5 4.98311 2.26384 3.62348 3.62348C2.26384 4.98311 1.5 6.82718 1.5 8.75C1.5 10.6728 2.26384 12.5169 3.62348 13.8765C4.98311 15.2362 6.82718 16 8.75 16C8.94891 16 9.13968 16.079 9.28033 16.2197C9.42098 16.3603 9.5 16.5511 9.5 16.75C9.5 16.9489 9.42098 17.1397 9.28033 17.2803C9.13968 17.421 8.94891 17.5 8.75 17.5C6.42936 17.5 4.20376 16.5781 2.56282 14.9372C0.921872 13.2962 0 11.0706 0 8.75C0 6.42936 0.921872 4.20376 2.56282 2.56282C4.20376 0.921872 6.42936 0 8.75 0Z" fill="#696969"/>
<path d="M8.72 6.26129C8.58752 6.11912 8.5154 5.93107 8.51883 5.73677C8.52225 5.54247 8.60097 5.35708 8.73838 5.21967C8.87579 5.08226 9.06118 5.00355 9.25548 5.00012C9.44978 4.99669 9.63783 5.06881 9.78 5.20129L12.78 8.20129C12.9205 8.34192 12.9993 8.53254 12.9993 8.73129C12.9993 8.93004 12.9205 9.12067 12.78 9.26129L9.78 12.2613C9.71134 12.335 9.62854 12.3941 9.53654 12.4351C9.44454 12.4761 9.34522 12.4981 9.24452 12.4999C9.14382 12.5017 9.04379 12.4831 8.9504 12.4454C8.85702 12.4077 8.77218 12.3515 8.70096 12.2803C8.62974 12.2091 8.5736 12.1243 8.53588 12.0309C8.49816 11.9375 8.47963 11.8375 8.48141 11.7368C8.48319 11.6361 8.50523 11.5368 8.54622 11.4448C8.58721 11.3528 8.64631 11.27 8.72 11.2013L10.44 9.48129H2.25C2.05109 9.48129 1.86032 9.40227 1.71967 9.26162C1.57902 9.12097 1.5 8.9302 1.5 8.73129C1.5 8.53238 1.57902 8.34161 1.71967 8.20096C1.86032 8.06031 2.05109 7.98129 2.25 7.98129H10.44L8.72 6.26129Z" fill="#696969"/>
</svg>
