<svg width="14" height="18" viewBox="0 0 14 18" fill="none" xmlns="http://www.w3.org/2000/svg">
<path id="Vector" d="M7 13.042C7.142 13.042 7.261 12.9943 7.357 12.899C7.45233 12.803 7.5 12.6843 7.5 12.543V7.889C7.5 7.747 7.452 7.62833 7.356 7.533C7.26 7.437 7.141 7.389 6.999 7.389C6.857 7.389 6.73833 7.437 6.643 7.533C6.54767 7.62833 6.5 7.747 6.5 7.889V12.543C6.5 12.6843 6.548 12.803 6.644 12.899C6.74 12.995 6.859 13.043 7.001 13.043L7 13.042ZM7 5.812C7.17467 5.812 7.32067 5.753 7.438 5.635C7.556 5.517 7.615 5.371 7.615 5.197C7.615 5.02233 7.556 4.876 7.438 4.758C7.32067 4.64 7.17467 4.581 7 4.581C6.82533 4.581 6.67933 4.64 6.562 4.758C6.444 4.876 6.385 5.02233 6.385 5.197C6.385 5.371 6.444 5.517 6.562 5.635C6.67933 5.753 6.82533 5.812 7 5.812ZM7 17.654C6.90867 17.654 6.813 17.6457 6.713 17.629C6.613 17.6123 6.51967 17.5873 6.433 17.554C4.46433 16.804 2.9 15.532 1.74 13.738C0.58 11.944 0 10.002 0 7.912V3.629C0 3.28633 0.0976669 2.97767 0.293 2.703C0.488334 2.42833 0.740667 2.22933 1.05 2.106L6.435 0.106C6.62967 0.0353333 6.818 0 7 0C7.182 0 7.37033 0.0353333 7.565 0.106L12.95 2.106C13.2593 2.22933 13.5117 2.42833 13.707 2.703C13.9023 2.97767 14 3.28633 14 3.629V7.912C14 10.002 13.42 11.944 12.26 13.738C11.1 15.532 9.536 16.804 7.568 17.554C7.48067 17.5873 7.387 17.6123 7.287 17.629C7.187 17.6457 7.09133 17.654 7 17.654ZM7 16.712C8.73333 16.162 10.1667 15.062 11.3 13.412C12.4333 11.762 13 9.92867 13 7.912V3.61C13 3.482 12.9647 3.36667 12.894 3.264C12.8233 3.16133 12.724 3.08467 12.596 3.034L7.212 1.034C7.14733 1.00733 7.07667 0.994 7 0.994C6.92333 0.994 6.85267 1.00733 6.788 1.034L1.404 3.034C1.276 3.08467 1.17667 3.16133 1.106 3.264C1.03533 3.36667 1 3.482 1 3.61V7.912C1 9.92867 1.56667 11.762 2.7 13.412C3.83333 15.062 5.26667 16.162 7 16.712Z" fill="white"/>
</svg>
