<svg width="26" height="26" viewBox="0 0 26 26" fill="none" xmlns="http://www.w3.org/2000/svg">
<g id="fluent:person-feedback-48-regular">
<path id="Vector" d="M16.3963 13.5417C16.2663 13.5417 16.1308 13.52 16.0008 13.4767C15.7566 13.3989 15.5438 13.2449 15.3937 13.0372C15.2435 12.8295 15.164 12.5792 15.1667 12.3229V10.8008C13.9425 10.6058 13 9.53875 13 8.26042V4.73959C13 3.32042 14.1538 2.16667 15.5729 2.16667H21.8021C23.2213 2.16667 24.375 3.32042 24.375 4.73959V8.26042C24.375 9.67959 23.2213 10.8333 21.8021 10.8333H19.0288L17.3604 13.0542C17.1221 13.3683 16.77 13.5417 16.3963 13.5417ZM15.5729 3.52084C14.9013 3.52084 14.3542 4.06792 14.3542 4.73959V8.26042C14.3542 8.93209 14.9013 9.47917 15.5729 9.47917H16.5208V11.9167L18.3517 9.47917H21.8075C22.4792 9.47917 23.0262 8.93209 23.0262 8.26042V4.73959C23.0262 4.06792 22.4792 3.52084 21.8075 3.52084H15.5729ZM8.66667 14.8958C6.42417 14.8958 4.60417 13.0758 4.60417 10.8333C4.60417 8.59084 6.42417 6.77084 8.66667 6.77084C10.9092 6.77084 12.7292 8.59084 12.7292 10.8333C12.7292 13.0758 10.9092 14.8958 8.66667 14.8958ZM8.66667 8.125C7.17167 8.125 5.95833 9.33834 5.95833 10.8333C5.95833 12.3283 7.17167 13.5417 8.66667 13.5417C10.1617 13.5417 11.375 12.3283 11.375 10.8333C11.375 9.33834 10.1617 8.125 8.66667 8.125ZM1.625 18.8446C1.625 18.8933 1.70625 23.8333 8.66667 23.8333C15.6271 23.8333 15.7083 18.8933 15.7083 18.8446V18.2813C15.7083 17.16 14.7983 16.25 13.6771 16.25H3.65625C2.535 16.25 1.625 17.16 1.625 18.2813V18.8446ZM2.97917 18.2813C2.97917 17.9075 3.2825 17.6042 3.65625 17.6042H13.6771C14.0508 17.6042 14.3542 17.9075 14.3542 18.2813V18.8392C14.3542 18.9854 14.235 22.4792 8.66667 22.4792C3.09833 22.4792 2.97917 18.9854 2.97917 18.8446V18.2813Z" fill="white"/>
</g>
</svg>
