<svg width="26" height="26" viewBox="0 0 26 26" fill="none" xmlns="http://www.w3.org/2000/svg">
<path d="M0.774983 0.775006C0.616444 0.93359 0.519998 1.14375 0.503142 1.36735C0.486286 1.59096 0.550135 1.8132 0.683108 1.99376L0.774983 2.10063L5.81873 7.14438C3.35987 8.86736 1.60446 11.4189 0.874358 14.3313C0.820597 14.5702 0.862449 14.8206 0.990964 15.0291C1.11948 15.2375 1.32445 15.3874 1.56205 15.4467C1.79965 15.506 2.05101 15.4699 2.26238 15.3463C2.47375 15.2226 2.62835 15.0212 2.69311 14.785C3.34142 12.2002 4.93846 9.95392 7.16686 8.49251L9.42998 10.7556C8.52215 11.6993 8.02071 12.9615 8.03339 14.2709C8.04608 15.5803 8.57187 16.8325 9.49781 17.7584C10.4237 18.6844 11.6759 19.2102 12.9854 19.2228C14.2948 19.2355 15.5569 18.7341 16.5006 17.8263L23.8994 25.225C24.0667 25.3916 24.2907 25.489 24.5266 25.4976C24.7626 25.5062 24.9931 25.4255 25.1721 25.2716C25.3511 25.1177 25.4655 24.9019 25.4923 24.6673C25.5192 24.4327 25.4565 24.1966 25.3169 24.0063L25.225 23.8994L17.5844 16.2569V16.255L16.0844 14.7569L12.4975 11.17L8.89936 7.57188L7.48373 6.15626L2.10061 0.775006C1.9248 0.599252 1.68639 0.500519 1.4378 0.500519C1.1892 0.500519 0.95079 0.599252 0.774983 0.775006ZM10.7556 12.0813L15.1731 16.5006C14.5831 17.067 13.7945 17.3795 12.9767 17.3712C12.1588 17.3628 11.3768 17.0342 10.7985 16.4559C10.2202 15.8775 9.89157 15.0955 9.8832 14.2777C9.87483 13.4599 10.1892 12.6713 10.7556 12.0813ZM13 4.87563C11.7494 4.87563 10.5362 5.05938 9.38873 5.40626L10.9356 6.95126C13.6101 6.42148 16.386 6.9397 18.6892 8.39876C20.9924 9.85783 22.6469 12.1462 23.3106 14.7906C23.3754 15.0268 23.53 15.2282 23.7413 15.3519C23.9527 15.4756 24.2041 15.5116 24.4417 15.4523C24.6793 15.393 24.8842 15.2431 25.0128 15.0347C25.1413 14.8262 25.1831 14.5758 25.1294 14.3369C24.4511 11.6337 22.8892 9.23454 20.6917 7.52041C18.4942 5.80628 15.787 4.87542 13 4.87563ZM13.2437 9.26313L17.995 14.0125C17.9341 12.7721 17.414 11.5986 16.5358 10.7204C15.6576 9.84226 14.4842 9.32401 13.2437 9.26313Z" fill="#519C6D"/>
</svg>
