<svg width="22" height="22" viewBox="0 0 22 22" fill="none" xmlns="http://www.w3.org/2000/svg">
<path d="M11 8.42188C10.4901 8.42188 9.99164 8.57308 9.56767 8.85637C9.1437 9.13966 8.81326 9.5423 8.61812 10.0134C8.42299 10.4845 8.37194 11.0029 8.47141 11.503C8.57089 12.0031 8.81643 12.4625 9.17699 12.823C9.53755 13.1836 9.99693 13.4291 10.497 13.5286C10.9971 13.6281 11.5155 13.577 11.9866 13.3819C12.4577 13.1867 12.8603 12.8563 13.1436 12.4323C13.4269 12.0084 13.5781 11.5099 13.5781 11C13.5781 10.3162 13.3065 9.66048 12.823 9.17699C12.3395 8.6935 11.6838 8.42188 11 8.42188ZM11 12.5469C10.6941 12.5469 10.395 12.4562 10.1406 12.2862C9.88622 12.1162 9.68795 11.8746 9.57088 11.592C9.4538 11.3093 9.42316 10.9983 9.48285 10.6982C9.54254 10.3982 9.68986 10.1225 9.9062 9.9062C10.1225 9.68986 10.3982 9.54254 10.6982 9.48285C10.9983 9.42316 11.3093 9.4538 11.592 9.57088C11.8746 9.68795 12.1162 9.88622 12.2862 10.1406C12.4562 10.395 12.5469 10.6941 12.5469 11C12.5469 11.4103 12.3839 11.8037 12.0938 12.0938C11.8037 12.3839 11.4103 12.5469 11 12.5469ZM11 6.70313C11.5099 6.70313 12.0084 6.55192 12.4323 6.26863C12.8563 5.98535 13.1867 5.5827 13.3819 5.11161C13.577 4.64052 13.6281 4.12214 13.5286 3.62203C13.4291 3.12193 13.1836 2.66255 12.823 2.30199C12.4625 1.94143 12.0031 1.69589 11.503 1.59641C11.0029 1.49694 10.4845 1.54799 10.0134 1.74312C9.5423 1.93826 9.13966 2.2687 8.85637 2.69267C8.57308 3.11664 8.42188 3.6151 8.42188 4.125C8.42188 4.80876 8.6935 5.46452 9.17699 5.94801C9.66048 6.4315 10.3162 6.70313 11 6.70313ZM11 2.57813C11.3059 2.57813 11.605 2.66885 11.8594 2.83882C12.1138 3.00879 12.312 3.25038 12.4291 3.53304C12.5462 3.81569 12.5768 4.12672 12.5172 4.42678C12.4575 4.72685 12.3101 5.00247 12.0938 5.21881C11.8775 5.43514 11.6018 5.58247 11.3018 5.64215C11.0017 5.70184 10.6907 5.67121 10.408 5.55413C10.1254 5.43705 9.88379 5.23878 9.71382 4.9844C9.54385 4.73002 9.45313 4.43094 9.45313 4.125C9.45313 3.71474 9.6161 3.32129 9.9062 3.0312C10.1963 2.7411 10.5897 2.57813 11 2.57813ZM11 15.2969C10.4901 15.2969 9.99164 15.4481 9.56767 15.7314C9.1437 16.0147 8.81326 16.4173 8.61812 16.8884C8.42299 17.3595 8.37194 17.8779 8.47141 18.378C8.57089 18.8781 8.81643 19.3375 9.17699 19.698C9.53755 20.0586 9.99693 20.3041 10.497 20.4036C10.9971 20.5031 11.5155 20.452 11.9866 20.2569C12.4577 20.0617 12.8603 19.7313 13.1436 19.3073C13.4269 18.8834 13.5781 18.3849 13.5781 17.875C13.5781 17.1912 13.3065 16.5355 12.823 16.052C12.3395 15.5685 11.6838 15.2969 11 15.2969ZM11 19.4219C10.6941 19.4219 10.395 19.3312 10.1406 19.1612C9.88622 18.9912 9.68795 18.7496 9.57088 18.467C9.4538 18.1843 9.42316 17.8733 9.48285 17.5732C9.54254 17.2732 9.68986 16.9975 9.9062 16.7812C10.1225 16.5649 10.3982 16.4175 10.6982 16.3578C10.9983 16.2982 11.3093 16.3288 11.592 16.4459C11.8746 16.563 12.1162 16.7612 12.2862 17.0156C12.4562 17.27 12.5469 17.5691 12.5469 17.875C12.5469 18.2853 12.3839 18.6787 12.0938 18.9688C11.8037 19.2589 11.4103 19.4219 11 19.4219Z" fill="white"/>
</svg>
