<svg width="15" height="15" viewBox="0 0 15 15" fill="none" xmlns="http://www.w3.org/2000/svg">
<path d="M12.6439 6.92403C12.6262 6.8489 12.5902 6.77931 12.539 6.72146C12.4879 6.6636 12.4233 6.61927 12.351 6.59238L8.97538 5.32617L9.83436 1.02949C9.85381 0.929663 9.84027 0.826213 9.79577 0.734757C9.75127 0.6433 9.67823 0.568799 9.58767 0.522495C9.49711 0.476191 9.39395 0.460597 9.29375 0.478066C9.19356 0.495536 9.10176 0.54512 9.03222 0.619338L2.46972 7.65059C2.41642 7.70675 2.37786 7.77524 2.35749 7.84994C2.33712 7.92464 2.33557 8.00322 2.35298 8.07867C2.37039 8.15411 2.40622 8.22407 2.45726 8.28229C2.5083 8.34051 2.57298 8.38518 2.6455 8.41231L6.02225 9.67852L5.16561 13.9705C5.14616 14.0703 5.15971 14.1738 5.20421 14.2652C5.24871 14.3567 5.32175 14.4312 5.41231 14.4775C5.50287 14.5238 5.60603 14.5394 5.70622 14.5219C5.80642 14.5045 5.89822 14.4549 5.96776 14.3807L12.5303 7.34942C12.5826 7.29324 12.6203 7.22507 12.6402 7.1509C12.66 7.07672 12.6613 6.99882 12.6439 6.92403ZM6.40839 12.5391L7.02186 9.46992C7.04382 9.36107 7.02642 9.24797 6.97277 9.15075C6.91912 9.05353 6.83269 8.97851 6.72889 8.93906L3.6328 7.77598L8.591 2.46387L7.97811 5.53301C7.95616 5.64186 7.97356 5.75497 8.02721 5.85219C8.08086 5.94941 8.16728 6.02442 8.27108 6.06387L11.3648 7.22403L6.40839 12.5391Z" fill="white"/>
</svg>
